<svg width="54" height="50" viewBox="0 0 54 50" fill="none" xmlns="http://www.w3.org/2000/svg">
<path fill-rule="evenodd" clip-rule="evenodd" d="M20.5512 39.3189L20.5512 13.1548C20.5555 12.158 21.0475 11.2309 21.859 10.6906C22.6705 10.1503 23.6915 10.0699 24.5729 10.477L35.5198 15.5624C36.5673 16.0458 37.2328 17.1296 37.2094 18.3139V34.946C37.2098 36.1533 36.4913 37.2367 35.4008 37.6729L24.4539 42.1442C23.5615 42.5077 22.5518 42.3843 21.7662 41.8157C20.9806 41.247 20.5242 40.309 20.5512 39.3189ZM32.4499 33.5211V19.5177L25.3107 16.2011V36.42L32.4499 33.5211Z" fill="#EA4222"/>
<path fill-rule="evenodd" clip-rule="evenodd" d="M0.320033 46.5239L0.320033 3.64391C0.324374 2.64396 0.816448 1.71401 1.62801 1.17202C2.43958 0.630034 3.46069 0.549421 4.34223 0.957746L15.2902 6.05898C16.314 6.53316 16.975 7.58388 16.98 8.74514L16.98 42.0634C16.9804 43.2744 16.2618 44.3612 15.1712 44.7988L4.22323 49.284C3.34253 49.6434 2.34707 49.5276 1.56534 48.9748C0.783617 48.422 0.317209 47.5041 0.320033 46.5239ZM12.22 40.708L12.22 10.0266L5.08003 6.69972L5.08003 43.6652L12.22 40.708Z" fill="#EA4222"/>
<path fill-rule="evenodd" clip-rule="evenodd" d="M39.5906 31.0238V21.4749C39.5949 20.4814 40.0869 19.5574 40.8985 19.019C41.71 18.4805 42.7311 18.4004 43.6126 18.8061L52.1802 22.6991C53.204 23.1702 53.8649 24.2141 53.87 25.3679V27.596C53.8735 28.8061 53.1555 29.8946 52.0612 30.3383L43.4936 33.8151C42.605 34.1756 41.6001 34.0552 40.8158 33.4943C40.0315 32.9334 39.5717 32.0063 39.5906 31.0238ZM48.539 26.4452L44.3504 24.5109V28.1346L48.539 26.4452Z" fill="#EA4222"/>
</svg>
