<svg width="54" height="54" viewBox="0 0 54 54" fill="none" xmlns="http://www.w3.org/2000/svg">
<path d="M24.12 20.624C24.12 19.2963 25.4519 18.22 27.095 18.22C28.738 18.22 30.07 19.2963 30.07 20.624V34.8559C30.07 36.1836 28.738 37.26 27.095 37.26C25.4519 37.26 24.12 36.1836 24.12 34.8559V20.624Z" fill="#EA4222"/>
<path d="M27.095 46.78C28.738 46.78 30.07 45.448 30.07 43.805C30.07 42.1619 28.738 40.83 27.095 40.83C25.4519 40.83 24.12 42.1619 24.12 43.805C24.12 45.448 25.4519 46.78 27.095 46.78Z" fill="#EA4222"/>
<path fill-rule="evenodd" clip-rule="evenodd" d="M27.4368 8.52694C27.3553 8.35927 27.1848 8.25278 26.9979 8.25278C26.8109 8.25278 26.6404 8.35927 26.5589 8.52694L6.73263 48.4523C6.65616 48.6035 6.66418 48.7834 6.75379 48.9273C6.84339 49.0711 7.00168 49.1581 7.17159 49.157H47.0436C47.2135 49.1581 47.3718 49.0711 47.4614 48.9273C47.551 48.7834 47.5591 48.6035 47.4826 48.4523L27.4368 8.52694ZM24.3641 1.99017C24.8582 0.997744 25.8739 0.369995 26.9857 0.369995C28.0974 0.369995 29.1132 0.997744 29.6072 1.99017L53.6036 49.7888C54.0153 50.6834 53.9463 51.7246 53.4202 52.5575C52.8941 53.3905 51.9818 53.9028 50.9942 53.9198H3.24535C2.23163 53.928 1.28712 53.4084 0.753872 52.5493C0.220621 51.6902 0.175932 50.616 0.635987 49.7159L24.3641 1.99017Z" fill="#EA4222"/>
</svg>
