<svg width="40" height="62" viewBox="0 0 40 62" fill="none" xmlns="http://www.w3.org/2000/svg">
<path fill-rule="evenodd" clip-rule="evenodd" d="M38.1447 14.0579L18.8123 1.31872C17.7751 0.62872 16.437 0.561662 15.3345 1.14443C14.232 1.7272 13.5454 2.86441 13.5501 4.10021V50.3285C13.5501 51.8647 14.81 53.11 16.3641 53.11C17.9183 53.11 19.1782 51.8647 19.1782 50.3285V27.1865L37.5256 19.9825C38.7312 19.5492 39.5805 18.4732 39.7123 17.2119C39.8441 15.9505 39.2353 14.7257 38.1447 14.0579ZM19.1782 21.2064V8.24463L31.4755 16.3388L19.1782 21.2064Z" fill="#EA4222"/>
<path fill-rule="evenodd" clip-rule="evenodd" d="M7.98479 49.0343C8.64165 48.666 9.12938 48.037 9.33826 47.2887C9.54715 46.5404 9.45965 45.7358 9.09546 45.0557C8.33296 43.673 6.64638 43.1931 5.31919 43.9812C2.54742 45.2995 0.684224 48.0944 0.460022 51.2704C0.762271 54.7446 2.91055 57.7441 6.01336 59.0242C9.49518 60.691 13.2916 61.5149 17.12 61.4346C20.9484 61.5139 24.7446 60.69 28.2267 59.0242C31.3336 57.7497 33.4841 54.7471 33.78 51.2704C33.5611 48.1009 31.7096 45.3076 28.9486 43.9812C28.3085 43.5934 27.5469 43.4887 26.8328 43.6904C26.1186 43.8921 25.511 44.3836 25.1446 45.0557C24.776 45.7287 24.6802 46.5279 24.8784 47.2752C25.0766 48.0226 25.5524 48.656 26.1997 49.0343C28.0046 50.1088 28.2267 51.009 28.2267 51.2704C28.2267 51.5318 27.9213 52.6643 25.6999 53.826C23.0042 55.088 20.0726 55.7032 17.12 55.6265C14.1761 55.7068 11.2528 55.0913 8.56789 53.826C6.34655 52.6643 6.01336 51.5898 6.01336 51.2704C6.01336 50.9509 6.31879 50.0797 7.98479 49.0343Z" fill="#EA4222"/>
</svg>
